<svg width="130" height="120" viewBox="0 0 130 120" fill="none" xmlns="http://www.w3.org/2000/svg">
<path d="M91.5107 27.6582C92.2561 28.1329 93.0181 28.5839 93.748 29.0703C105.082 36.6248 114.465 45.5488 120.824 54.8018C128.388 65.8097 133.79 80.723 126.669 93.9941C119.547 107.265 104.27 110.768 91.0497 110.304C81.0452 109.95 69.9387 107.343 58.7753 102.794C58.5542 102.704 58.3381 102.606 58.1171 102.516L58.1064 102.527C55.8239 101.581 53.5284 100.577 51.2529 99.4678L45.4296 96.4531C39.8 93.3452 34.5312 89.86 29.703 86.1514L28.1679 84.9277L27.8612 84.6719L27.0195 83.8145L32.2655 73.1924L33.1904 73.8584L33.2128 73.8701C36.4104 76.5598 39.919 79.168 43.6855 81.624C43.9359 81.7873 44.1896 81.9513 44.4423 82.1133C44.712 82.2861 44.9815 82.4644 45.2538 82.6357C45.544 82.8183 45.8376 83.0008 46.1308 83.1816C47.716 84.1592 49.3532 85.1078 51.0224 86.0293C65.2076 93.8589 79.6177 98.025 91.4443 98.4443C98.2064 98.6827 104.083 97.6967 108.607 95.4961C112.051 93.8196 114.74 91.4312 116.404 88.332C117.35 86.5675 117.928 84.636 118.161 82.5908L118.203 82.1797C118.742 76.2212 116.393 69.3164 111.69 62.2607L111.228 61.5771C109.17 58.5825 106.667 55.6075 103.837 52.666L101.544 50.5781L89.787 26.7266L91.5107 27.6582ZM104.795 48.1289L106.628 49.7979L106.719 49.8926C109.662 52.9509 112.313 56.0946 114.524 59.3105C119.803 66.993 122.86 75.088 122.186 82.54C121.943 85.2251 121.215 87.826 119.93 90.2227L119.929 90.2236C117.8 94.1897 114.417 97.1167 110.357 99.0928L110.356 99.0938C105.064 101.668 98.4841 102.694 91.3036 102.441C78.7255 101.995 63.7043 97.5985 49.0888 89.5312C47.3716 88.5832 45.6784 87.6017 44.0312 86.5859C43.7367 86.4044 43.4302 86.2141 43.1239 86.0215C42.8507 85.8496 42.4665 85.5983 42.2841 85.4814C42.0207 85.3126 41.7579 85.1422 41.5009 84.9746C38.7545 83.1837 36.1387 81.3093 33.6689 79.3818L31.9628 82.8369L32.164 82.998C36.8159 86.5695 41.8895 89.9255 47.3066 92.9199L53.0331 95.8857C54.6816 96.6883 56.3511 97.4385 58.0341 98.1572L59.6376 98.8164C59.7827 98.876 59.9225 98.9358 60.0243 98.9795C60.1364 99.0276 60.2137 99.0608 60.2851 99.0898L61.2988 99.498C71.7712 103.653 82.0438 105.982 91.1913 106.306C103.942 106.754 117.135 103.303 123.144 92.1035C128.982 81.2241 125.098 68.5282 118.203 58.0723L117.527 57.0674C113.174 50.7331 107.267 44.4896 100.17 38.7451L104.795 48.1289ZM4.76555 23.5303C12.3614 12.2161 26.5673 9.16672 38.9589 9.60254C47.2664 9.89595 56.3724 11.7532 65.6181 14.9756L66.0575 15.1309C66.749 15.3763 67.447 15.6272 68.1405 15.8877L69.6923 16.5166L78.0361 33.4434L76.3105 32.4639C70.3177 29.361 64.3157 26.9288 58.5263 25.1377L57.372 24.7871L56.0888 24.3652C55.5332 24.209 54.9729 24.0746 54.4218 23.9307C54.2206 23.8782 54.029 23.8255 53.83 23.7754C51.5898 23.2068 49.3856 22.7467 47.2382 22.3848C47.1654 22.3724 47.1014 22.356 47.0634 22.3516C47.0178 22.3462 46.9863 22.3398 46.9863 22.3398L46.7011 22.2959C45.8526 22.1592 45.0093 22.0434 44.1786 21.9395L43.3456 21.8398C42.9383 21.7938 42.5304 21.7332 42.1279 21.6953C40.9155 21.5812 39.7198 21.5022 38.5536 21.4609C26.7253 21.0451 17.4771 24.3914 13.6152 31.585C9.75629 38.7818 12.0111 48.4771 18.7802 58.3281C19.6134 59.5402 20.5273 60.7419 21.4892 61.9443L22.2724 62.8945L22.2616 62.9053L16.8114 73.9521L16.6581 74.2656L15.8193 73.4473C15.5667 73.1682 15.3108 72.8925 15.0634 72.6123C12.8893 70.1494 10.9122 67.6437 9.17375 65.1143C1.72881 54.2784 -3.61877 39.6485 3.00481 26.5342L3.32902 25.9111L4.76555 23.5303ZM38.8173 13.5986C26.9142 13.1802 14.5628 16.1792 8.12785 25.6982L6.81828 27.8691C0.848505 39.0867 5.17565 52.2321 12.4697 62.8486C13.4604 64.2903 14.5398 65.7313 15.6982 67.167L17.5517 63.4102C16.8375 62.4897 16.142 61.5516 15.4843 60.5947C8.44344 50.3484 5.14579 38.9146 10.0898 29.6943L10.0907 29.6924C15.0552 20.4452 26.3641 17.0305 38.6933 17.4639C39.9412 17.508 41.2172 17.5918 42.5038 17.7129C42.7046 17.7318 42.985 17.765 43.2363 17.7959L43.7948 17.8652L43.8085 17.8662L43.8222 17.8682L44.6562 17.9678L44.6659 17.9697L44.6757 17.9707C45.5359 18.0784 46.4286 18.2002 47.3378 18.3467L47.6034 18.3877L47.6611 18.3965H47.665C47.6843 18.3994 47.7021 18.4018 47.7177 18.4043C47.7669 18.4123 47.8088 18.4201 47.8388 18.4258C47.8934 18.4361 47.9426 18.4468 47.954 18.4492C50.1883 18.8272 52.4783 19.306 54.8056 19.8965L55.4316 20.0605C55.6476 20.117 55.9347 20.1892 56.2411 20.2676L57.1718 20.5146L57.2568 20.5381L57.3407 20.5654L58.5761 20.9727C62.0955 22.0175 65.6895 23.2908 69.3134 24.7959L66.7782 19.6514L66.6991 19.6191C66.0518 19.3764 65.3928 19.1403 64.7197 18.9014L64.7187 18.9004L64.3017 18.752C55.3592 15.6352 46.6516 13.8753 38.8173 13.5986ZM47.6025 18.3887C47.6157 18.3905 47.6284 18.3918 47.6405 18.3936C47.6362 18.3928 47.6313 18.3923 47.6269 18.3916C47.6191 18.3904 47.6109 18.3899 47.6025 18.3887ZM47.5263 18.3779C47.5533 18.3811 47.5787 18.3855 47.6025 18.3887C47.5798 18.3853 47.5537 18.3811 47.5263 18.3779Z" fill="white"/>
<path d="M43.2137 22.9623C46.8579 23.3736 50.7013 24.1122 54.6737 25.1761L17.6618 100.29C15.2535 105.184 20.3718 110.375 25.1958 107.933L45.3631 97.6981C49.6514 100.042 54.0053 102.081 58.3475 103.85L30.2184 118.123C15.7419 125.461 0.381912 109.88 7.61648 95.1951L43.2137 22.9623Z" fill="white"/>
<path d="M123.85 99.9453C126.207 112.976 112.599 124.676 99.6802 118.123L85.7637 111.059C87.5347 111.246 89.2808 111.388 90.9947 111.448C102.391 111.849 115.597 109.317 123.85 99.9453Z" fill="white"/>
<path d="M61.9116 90.0888C65.466 89.4264 69.1762 89.9139 72.4833 91.5907L81.41 96.1184C75.2369 94.9516 68.6322 92.954 61.9116 90.0888Z" fill="white"/>
<path d="M49.8813 9.44577C56.0889 -3.1486 73.8096 -3.14859 80.0172 9.44577L116.755 83.9814C116.468 85.3209 116.032 86.5992 115.395 87.786C114.024 90.3403 111.881 92.3913 109.1 93.938L69.9719 14.5409C68.332 11.2138 64.2885 10.5251 61.6484 12.4717C57.6365 11.2522 53.67 10.2872 49.7936 9.61264L49.8813 9.44577Z" fill="white"/>
<path d="M43.2137 22.9623C46.8579 23.3736 50.7013 24.1122 54.6737 25.1761L17.6618 100.29C15.2535 105.184 20.3718 110.375 25.1958 107.933L45.3631 97.6981C49.6514 100.042 54.0053 102.081 58.3475 103.85L30.2184 118.123C15.7419 125.461 0.381912 109.88 7.61648 95.1951L43.2137 22.9623Z" fill="white"/>
<path d="M123.85 99.9453C126.207 112.976 112.599 124.676 99.6802 118.123L85.7637 111.059C87.5347 111.246 89.2808 111.388 90.9947 111.448C102.391 111.849 115.597 109.317 123.85 99.9453Z" fill="white"/>
<path d="M61.9116 90.0888C65.466 89.4264 69.1762 89.9139 72.4833 91.5907L81.41 96.1184C75.2369 94.9516 68.6322 92.954 61.9116 90.0888Z" fill="white"/>
<path d="M49.8813 9.44577C56.0889 -3.1486 73.8096 -3.14859 80.0172 9.44577L116.755 83.9814C116.468 85.3209 116.032 86.5992 115.395 87.786C114.024 90.3403 111.881 92.3913 109.1 93.938L69.9719 14.5409C68.332 11.2138 64.2885 10.5251 61.6484 12.4717C57.6365 11.2522 53.67 10.2872 49.7936 9.61264L49.8813 9.44577Z" fill="white"/>
</svg>
